<svg id="Layer_1" data-name="Layer 1" xmlns="http://www.w3.org/2000/svg" xmlns:xlink="http://www.w3.org/1999/xlink" viewBox="0 0 2000 2000"><defs><style>.cls-1{fill:#f5d098;}.cls-2{fill:#d48321;}.cls-3{fill:#1e4637;}.cls-4{fill:#78874a;}.cls-5{fill:#c1661b;}.cls-6{fill:url(#linear-gradient);}.cls-7{fill:#e29439;}</style><linearGradient id="linear-gradient" x1="1236.42" y1="981.52" x2="1236.42" y2="1232.31" gradientUnits="userSpaceOnUse"><stop offset="0.15" stop-color="#c1661b"/><stop offset="0.6" stop-color="#db8932"/></linearGradient></defs><title>Logo1</title><path class="cls-2" d="M1241,408l-.35,17.33a391.29,391.29,0,0,0-81.11,9.27c-9.1,2-18.31,4.21-27.21,6.35-35.8,8.57-72.81,17.44-111.85,15.56-36.19-1.73-74.89-9.86-121.78-25.57-19-6.35-38.19-13.5-56.8-20.42C760.58,380.29,676.49,349,589.24,374.23,560,382.66,514,405,467.36,433.13q-4.73,2.87-9.45,5.79c-11.61,7.21-22.79,14.5-33.23,21.67l-4.81-7c.07-3.56.2-7.07.4-10.55h0c9.13-6.15,18.75-12.38,28.68-18.54q11.16-6.92,22.19-13.36c43.83-25.62,85.07-45.05,113.38-53.23,92.64-26.74,179.4,5.51,263.3,36.7,18.48,6.87,37.59,14,56.28,20.23,45.37,15.2,82.61,23.05,117.2,24.71,36.61,1.76,70.84-6.44,107.07-15.12,9-2.15,18.26-4.37,27.51-6.41C1190.9,410.28,1241,408,1241,408Z"/><path class="cls-2" d="M1334.17,419c.6.14,1.19.28,1.79.44l-1.72,0Z"/><path class="cls-2" d="M1591.12,562.13v9.5l-3.76,7.62c-10.46-5.15-21.17-11.08-32.74-18.12q-4.81-2.93-9.58-6c-17.68-11.24-34.9-23.46-51.66-35.34-28-19.85-57-40.38-87.81-56.24a340.09,340.09,0,0,0-50.28-20.9l-2.58-18.61a356.46,356.46,0,0,1,60.63,24.39c31.94,16.41,61.39,37.29,89.88,57.49,13.65,9.68,27.62,19.6,41.82,29q9.15,6,18.42,11.71C1573.2,552.54,1582.29,557.63,1591.12,562.13Z"/><path class="cls-2" d="M1565.5,650.13q-4.82-2.93-9.58-6c-17.68-11.24-34.9-23.46-51.66-35.34-28-19.85-57-40.38-87.81-56.24a340.09,340.09,0,0,0-50.28-20.9l-2.58-18.61a356.46,356.46,0,0,1,60.63,24.39c31.94,16.41,61.39,37.29,89.88,57.49,13.65,9.68,27.62,19.6,41.82,29q9.15,6,18.42,11.71C1584.08,641.54,1577.07,657.17,1565.5,650.13Z"/><path class="cls-2" d="M1261.7,346.25l-2.5,17.45c-17.38,2.27-48.33,8.68-69.42,13.33-7.75,1.71-15.13,3.47-22.27,5.18-35.71,8.53-66.55,15.9-122.83,12.86-42.12-2.27-96.47-18-134.64-30.78-23.78-8-46.29-17.5-68-26.71-73-30.88-141.88-60.05-254.06-32-28.27,7.07-70.28,28.92-116.65,60.52q-5.92,4-12,8.29c-16.53,11.68-23.18-4.44-9.8-13.88,14.48-10.23,35-24.07,57.34-37C532.28,308.68,560,295,583.81,289.07c52.84-13.2,101.58-15.26,149-6.28,42.23,8,79.63,23.83,115.81,39.14,21.46,9.08,43.66,18.48,66.82,26.24,37.18,12.46,89.93,27.76,130.16,29.92,53.81,2.91,83.54-4.19,118-12.42,7.21-1.72,14.66-3.5,22.56-5.24C1209.6,355.25,1242.53,348.57,1261.7,346.25Z"/><path class="cls-2" d="M1590.58,483l-.24,4.13-4.25,7.35c-9.91-5.73-20.35-12.36-31.92-20.29-3.08-2.1-6.14-4.23-9.21-6.39-9.8-6.93-19.56-14.08-29.07-21.06-21.89-16.05-44.52-32.65-68.09-46.56-36.06-21.28-73.51-32.93-116.77-36.19l-1.44-17.14c46.65,3.21,88.26,15.92,126.84,38.69,24.31,14.34,47.29,31.19,69.52,47.5,5.94,4.35,12,8.78,18,13.16,6.59,4.75,13.2,9.46,19.79,14,9.75,6.68,18.65,12.4,27.07,17.4C1590.78,479.39,1590.69,481.2,1590.58,483Z"/><path class="cls-2" d="M1274.7,289.25l-2.5,17.45c-17.38,2.27-36.33,5.68-57.42,10.33-7.75,1.71-15.13,3.47-22.27,5.18-35.71,8.53-66.55,15.9-122.83,12.86-42.12-2.27-96.47-18-134.64-30.78-23.78-8-46.29-17.5-68-26.71,0,0,50.29,2.83,73.45,10.59,37.18,12.46,89.93,27.76,130.16,29.92,53.81,2.91,83.54-4.19,118-12.42,7.21-1.72,14.66-3.5,22.56-5.24C1234.6,295.25,1255.53,291.57,1274.7,289.25Z"/><path class="cls-2" d="M1558.13,400.2q-4.79-2.88-9.56-5.85c-10.19-6.34-20.35-12.91-30.25-19.32-22.79-14.75-46.35-30-70.69-42.51-37.25-19.14-75.31-28.58-118.69-29.31l-2.44-17c46.76.48,89,10.74,128.89,31.22,25.1,12.9,49,28.38,72.17,43.36,6.18,4,12.46,8.07,18.77,12.09,6.85,4.36,13.73,8.67,20.57,12.79C1577,391.74,1570.15,407.44,1558.13,400.2Z"/><path class="cls-2" d="M1234.41,475.62l-2.09,16.89c-40.46-3.21-85.75,1.08-134.88,12.81-8.51,2-17.33,4.32-25.85,6.54-34.54,9-70.26,18.28-106.39,16.4-37.63-2-70.6-13.94-105.51-26.62l-4.05-1.47c-19.08-6.92-37.3-14.65-54.93-22.13-69-29.27-134.1-56.91-234.42-27.54-24.46,7.15-60.65,25.47-100.39,50.71q-4.63,2.94-9.35,6c-10.92,7.13-21.61,14.46-31.75,21.79l-5-6.89V511.67c8.86-6.28,18.06-12.56,27.43-18.68q9.44-6.17,18.65-11.84c37.51-23.13,71.63-39.95,95.61-47,106.15-31.07,174-2.28,245.84,28.21,17.42,7.39,35.43,15,54.09,21.8l4,1.47c33.68,12.24,65.5,23.79,100.59,25.62,33.52,1.75,67.94-7.21,101.23-15.87,8.6-2.24,17.5-4.56,26.19-6.63C1144.66,476.57,1192,472.15,1234.41,475.62Z"/><path class="cls-3" d="M1231,550.41v17.27c-48.73-8.95-100.65-7.86-151,3.24-7,1.56-14.33,3.23-22,5-42.43,9.77-90.52,20.85-131.69,18.87-33.88-1.63-57.66-10.1-85.18-19.9-7-2.48-14.18-5-21.93-7.64-19.19-6.43-36.9-13.16-54-19.66-72.81-27.65-130.33-49.49-218.35-15-17.87,7-45.06,25.9-80.9,56.28q-4.14,3.51-8.44,7.22c-10.08,8.73-20.81,18.3-31.91,28.44l-5.73-6.28V606.73c9.17-8.31,18.07-16.2,26.51-23.52q10.23-8.84,19.57-16.52c32.26-26.57,56.81-43,74.7-50,43.2-16.9,82.25-22.27,122.9-16.89,36.47,4.84,71.07,18,107.69,31.88,17,6.44,34.52,13.11,53.39,19.43,7.91,2.65,15.19,5.24,22.23,7.75,27.34,9.73,48.93,17.42,80.3,18.93,38.82,1.87,85.69-8.93,127.05-18.46,7.75-1.78,15.07-3.47,22.2-5C1127.84,543,1181,541.65,1231,550.41Z"/><path class="cls-3" d="M1588,724l1.92,18.1c-6.62-1-13.43-2.25-20.26-3.86-4.31-1-8.69-2.17-13-3.43a286.79,286.79,0,0,1-31.14-11.13c-40.59-17.16-76.75-42.8-111.72-67.59-7.68-5.45-15.62-11.09-23.48-16.53-4.38-3-8.52-5.86-12.47-8.52-5-3.34-9.63-6.41-14.1-9.26V601.7c7.88,4.84,16.15,10.21,25.44,16.47q5.17,3.51,10.81,7.41c7.93,5.5,15.92,11.16,23.64,16.64,34.22,24.27,69.61,49.36,108.5,65.8q5.13,2.16,10.27,4.1c.88.34,1.76.66,2.64,1q8.24,3,16.38,5.39c4,1.18,8.12,2.26,12.14,3.21C1579.9,723.19,1581.89,723.12,1588,724Z"/><path class="cls-3" d="M1589,816c-2.26.08-2.11-.24-4.39-.24a208.66,208.66,0,0,1-49.43-6.12c-58-14.21-105-48.77-150.48-82.19-27-19.85-54.92-40.37-84.68-56.22a323.67,323.67,0,0,0-88.46-31.57l-.69-.13c-43.83-8.71-89.2-8.69-134.83.07l-.81.15c-4,.76-8.08,1.63-12.2,2.57-6.78,1.55-13.79,3.22-21.21,5-41,9.79-87.45,20.88-127.27,18.89-32.77-1.63-55.74-10.11-82.34-19.93-5.7-2.1-11.58-4.27-17.81-6.47l-3.35-1.17c-18.53-6.43-35.62-13.16-52.15-19.66-70.14-27.6-125.54-49.41-210.25-15-12.54,5.08-30,16.58-51.85,34.17C477,654,453.74,674.8,425.69,701.58l-5.87-6.15V683.7c25.81-24.45,47.55-43.73,66.32-58.84C509.63,606,528,594,542.26,588.17c41.76-16.94,79.53-22.32,118.84-16.92,35.26,4.84,68.66,18,104,31.9,16.37,6.44,33.3,13.1,51.5,19.42l2.19.76c6.8,2.39,13.14,4.73,19.28,7,26.32,9.72,47.12,17.39,77.29,18.89,37.39,1.87,82.6-8.93,122.49-18.45,7.46-1.78,14.5-3.46,21.37-5,4.59-1,9.16-2,13.6-2.84l.79-.15c47.24-9,94.23-9,139.72-.06h0l.84.16a340.51,340.51,0,0,1,93.8,33.38c30.85,16.42,59.27,37.31,86.76,57.52,46.16,33.93,89.76,66,144.45,79.37,17.45,4.27,30,6.49,46.78,5.88Z"/><path class="cls-3" d="M1339.27,429.09l-1.1-7.92-.82,7.42L1332.24,475H1328l-7.17-50.23-11.13-77.92L1297,257.43l-13,91L1274,418l-8.79,61.46-9.88-58.57-8,64.6L1245,503.88v58a351,351,0,0,1,84.92,30.5q10.08,5.17,19.81,10.9V504.59ZM1559,458.86V729.45H1531l-2.16-13.6L1520,660.28l-2.85-17.92h-10.44l-1.86,10.14-8,43.78-78.34-90.2-23.33,26.49-45.41,51.57V504.59l-10.47-75.5-1.1-7.92-.82,7.42L1332.24,475H1328l-7.17-50.23-11.13-77.92L1297,257.43l-13,91L1274,418l-8.79,61.46-9.88-58.57-8,64.6L1245,503.88v127.3h-32.48l-138.09.06h0l-258.43.1h0l-324.52.13-39.57,0V458.86a235.93,235.93,0,0,1,1.53-27.16,201.3,201.3,0,0,1,22.11-72.26C513.59,288,589.91,254.08,646.61,254.08h717.72c75.86,0,186.88,60.75,194.31,190.84Q1559,451.76,1559,458.86Zm32-5.43C1588.13,302.78,1463.1,222,1364.33,222H646.61c-81.73,0-181.44,55.3-215.07,159.75q-2.24,6.94-4.08,14.19A250.13,250.13,0,0,0,420.27,443h0c-.2,3.48-.33,7-.4,10.55,0,1.75-.05,3.51-.05,5.28v554.59c0,86,32.34,158,110.45,228.24S703.72,1348.12,744,1360.54c26.11,8,131.11,40.2,201.84,61.85a226.79,226.79,0,0,0,134-.35c22.91-7.15,49.26-15.43,75-23.64,64-22.47,203.07-92.34,221.14-104.62,10.16-6.91,12.73-14.49,12.26-21-.63-8.67-7-16-14.84-19.57-11.73-5.27-30.52-7.42-57.13,0-36.7,10.16-85.12,29.64-144.82,33.87a32,32,0,0,1-4.8,28.09c-10,14.26-28.38,18.07-67.19,20.61s-54.91,3.11-83.57-6.63-73.4-29.36-118.85-30.49c0,0,45-13.55,90.34,3.39s61.12,18.91,106.29,20,67.61-7.06,67.61-23.43-15.81-27-40.08-31.76-86.11-8.23-153-40.6-109-47-167.26-27.3-100.36,40.62-162.61,27.3-119.77-42.37-152.41-85.75c-20-33.39-30.76-68.66-33.37-107.81,20.44-6.92,98.62-29.05,225.3-13.42,148.78,18.35,293.32,82.43,382.81,130.14s163.74,81.3,163.74,81.3,9.95,19.27,37,19.48,46-15.24,84.48-15.45,52.93,22.23,52.93,36.41S1384,1298,1369.43,1308c39.6-14.61,80.8-40.67,111.23-66.28,78.12-70.29,110.46-142.28,110.46-228.24V458.86Q1591.12,456.13,1591.06,453.43Z"/><path class="cls-4" d="M451.9,984.64c19,2,111.75,12.57,206.23,32.44,6.44.63,13,1.33,19.72,2.16q15,1.85,29.93,4.31c-110-27.35-235-41.45-255.88-43.69Z"/><path class="cls-4" d="M1348.68,1158.27l-123.86,2.12L1199,1122.7l-55.26-28.79L1110,1109c-24.54-14.51-57.48-31.63-99.49-48.75C903,1016.41,738.27,988,738.27,988s-18.21,3.11-47.86-1.13l-4.65,4.66c69.23,12.21,134.23,22.94,231.84,57s146.73,64.57,188.23,83,66.48,35.79,66.48,35.79,2.12,21.17,2.12,22.23c0,.52-.83,8.63-1.66,16.71,31.66,15.33,51.63,24.36,51.63,24.36s9.95,19.27,37,19.48,46-15.24,84.48-15.45c29.65-.17,45,13.08,50.51,25.66a387.09,387.09,0,0,0,63.17-42.88c33.72-30.41,58.26-61.06,74.53-93.72C1504.58,1134.74,1431.52,1158.27,1348.68,1158.27Z"/><path class="cls-4" d="M451.9,798.52c31.33-7.68,99.5-13.22,117.55-16.14s19.24-9.92,19.33-24.38a40.33,40.33,0,0,0-11.32-79c-.54,0-1.06.06-1.59.08a40.17,40.17,0,0,0-38-67.36c.08-1.16.18-2.31.18-3.49a49.08,49.08,0,0,0-86.1-32.27Z"/><path class="cls-4" d="M679.12,789.86s-6.77,9.88-17.08,9.88H584.41l-8.19,5.37H564.36l15.53-15.25Z"/><path class="cls-5" d="M1251.22,952.47s-17.36,3.95-27.39,10.3V856.91H1013v115.8l243.9,14.2L1559,942.43V770.66H1251.22Zm-129.44-20.89-79,11.71v-68h79Zm342.09-137.7h81.19v61.93h-81.19Zm-100.26,0h86.18v61.93h-86.18ZM1297,799.39h16l-5.08-5.93c32.07,0,36,21.28,28.69,40l-10.38,23H1297Zm-49.19-57.8V759.8H1559V741.59Z"/><path class="cls-6" d="M1453.11,1187.28c-8.32-4.45-23.68-2.33-23.68-2.33s-24.64-78.06-25.2-79-50.11-59.7-50.11-59.7,3.24-6.64,4-18.35a28,28,0,0,0,4.94,0c1.27-.29,38.11-9.88,47-11.62s17.07-6.88,18.91-16.76-1-21.73-15.24-22.44c-1.42,0-32.33,1.84-32.75,1.69s-2.83-13.12-2.83-14.53-1.27-29.36-1.41-38-5.64-45.74-5.64-45.74a60.2,60.2,0,0,0-17.22-13.87c-11-6-17.51.32-38.82,2.3s-13.13,22.3-11.86,35.57-16.37,33.87-32.6,41.78-27.11,27-27.11,27-33.87,1.69-34.44,1.69-3-9.74-6.07-24.13-12.28-15.67-12.28-15.67,11-5.79,12.85-31.34-7.34-35.29-23.72-36.84-37.83,2.12-42.62,20.47,8.18,32.75,8.18,36.56-18.49,8.18-35.4,14.82-45.06,15.38-41.1,35.15,34.76,59,34.76,59c-15,19.69-9,55.79-9,55.79-7.52,9.84-9.53,24.77-12.18,34.92s-9.84,7.53-26.78,15.15-30.07,27.63-41.51,29.57c0,0-12.48,14.79,25.76,13.09s70.06-1.26,82.44-13.65,28.48-43.3,28.48-43.3,8.47,5.72,29.64,16.41c1.06,2.54,5.83,17.36,5.83,17.36l-1.59.64s-5.93-4.87-16-1.49-15.35,16-13.87,35.47,6.15,30.38,21.28,25,22.24-28.9,22.24-28.9c8.68,19.38,13.65,33.88,13.65,47.11s10.59,17.89,22.13,16.62,41.6-7.3,48.59-15.14,7-22.12-6.35-27.1-28.06-2.11-28.06-2.11l-7.83-37.06s39.06-7.73,53.89-12.09,34.4-46.56,34.4-46.56c4.13,4.13,24.35,16.52,27.74,19.48s4.87,25.3,17.47,43.41,25.62,34.72,27.2,40.23,7.2,14.18,20.12,14.82,28.79-8.37,35.36-16.73S1461.43,1191.73,1453.11,1187.28Zm-188.91-76.86s-16.23,6.78-32.46,13.22c0,0-5.37-17.88-14.54-31.15s-37.83-41.07-37.83-41.07c3.9-9.35,5.36-29.08,5.79-29.08a22.18,22.18,0,0,0,8.89,2.26c5.36.14,51.38-15.53,51.38-15.53s13,33.17,14.82,37.78,15.3,9.23,15.3,9.23S1271.26,1084.73,1264.2,1110.42Z"/><rect class="cls-5" x="701" y="679.13" width="283.08" height="15.88"/><path class="cls-7" d="M721.75,970.47h191V871.38h45.73v99.09h25.62V856.91H721.75ZM748,875.26H885.42v68H748Zm-47-74,20.75,15.26V846H984.08V706.16H701ZM886.26,736.5h44.4v85.76h-44.4Zm-134.44,0h48.27v85.76H751.82ZM1013,846h210.87V706.16H1013Zm134.22-113.7h39.32v88.5h-39.32Zm-96.12,0h39.31v94.22h-39.31Zm149.2-58.86V658.87c0-11.65-9.45-19.34-21.1-19.34s-21.1,7.69-21.1,19.34v14.54h-81.87V658.87c0-11.65-9.45-19.34-21.11-19.34h0c-11.65,0-21.1,7.69-21.1,19.34v14.54h-21V695h210.87v-21.6Z"/><path class="cls-7" d="M647.72,905.75a8.61,8.61,0,1,0,8.61,8.61A8.61,8.61,0,0,0,647.72,905.75ZM603,913h4V899.61h-4Zm-26.11-93.09v-1.41h-125v11.71h7.3v45.31h-7.3v8.05H575.37V942.1H579v-53h126.2V819.93Zm-88.65,55.61H466.19V830.23h22.09Zm31.34,0H495.27V830.23h24.35Zm30.49,0h-23.5V830.23h23.5Zm21,0h-14V830.23h14Zm54.91,1.66H589.84v-47h36.21Zm35.07,0H630.78v-47h30.34Zm35,0H665.85v-47h30.28Z"/><polygon class="cls-4" points="570.79 953.74 451.9 934.3 451.9 938.53 570.79 957.98 705.76 954.69 705.76 944.85 570.79 946.54 570.79 953.74"/><path class="cls-4" d="M1295.33,513.34h0s-13.87,16.3-13.87,30.81V616h31V544.15C1312.48,529.64,1295.33,513.34,1295.33,513.34Z"/><path class="cls-3" d="M1179.19,1162.08c-4.23-1.37-10.69-.42-11.43,5.61s-2.65,31.45-2.86,40.87,5.9,11,9.32,5.71c7-10.91,11.34-22.27,17.23-38a102.38,102.38,0,0,1-6.17-13.19C1182.68,1163.79,1181.53,1162.84,1179.19,1162.08ZM1445,1194.8c-10.16-1.7-21.38,0-21.38,0s-3-7.2-10.06-27.85-18.63-54.09-18.95-56.74-50.71-61.4-50.71-61.4a269.7,269.7,0,0,0,7.73-42.45,54.89,54.89,0,0,0,10.37,12.06s43.09-13.23,52.19-16.3,5.3-14.61-4.55-14.5c0,0-23.82,3.7-35.57,7.73,0,0-4.87-23.93-6.14-36.63s-5.64-14-9.6-17.47-6.7-7.13-6.63-11.44c0,0,4.3,1,7.06.15s2.18-2,2.47-4.31a41.09,41.09,0,0,1,2.11-9.95c1.56-4.38,2.26-5.22,2.05-6.07s-1.62-.07-2.4-.07,2-11.58,1.2-18.84-6.74-16.27-22-17.65S1313,881.33,1313,898s13.69,26.47,13.69,26.47-1.9,5.79-14.89,12.56-47.78,23.29-53.18,33.88,2.16,40.58,5.12,50.39,2.26,18.85,2.26,21,11.71,6.43,12.56,6.21,1.84-4.94,3.11-10.79.84-9-.92-13.06-4.59-12.49-5.17-25.62,1.92-19.9,4.6-21.24,20.37-6.85,20.37-6.85-3,15.67-1.59,47.78c-15.11,30.07-15.25,65.5-26,102.05a349.66,349.66,0,0,0-38.35,14.59c1.22,5.57,3.43,16.34,5.1,28.17,21-4.93,41.86-10,46-11.45,8.79-3.18,13.24-6.57,24.57-25.41s15.77-34.51,15.77-34.51c12.17,15.13,28.9,21.59,43.3,34.51,0,0,2.12,17.15,10.37,31.12s21.7,33.77,25.52,40.65,3.17,12.18,3.17,15.78,6,6.24,14.29,6.56,15.46-2.75,24.25-10.48S1455.18,1196.49,1445,1194.8Zm-180,23.25c-12.7-1-28.37,1.76-28.37,1.76-4.66-41.92-13.87-95.84-19.59-106.32s-49-61.51-49-61.51l11.71-49.26,11.3,12.28s47.35-15.53,48.84-16.16,2.89-2.61,2.61-6.07-2.47-8.19-13.77-7.49l-28.4,5.09s-1.38-16.62-3.5-31S1181,934.26,1181,934.26l-.1-5.08s8.57-.95,9.84-2.12.85-7.73,1.06-8.78.74-.64,1.38-1.49,1.27-3.17,1.9-4.76-1-3.49-1.48-5.51,3.64-10.09,1.87-15.88-9.38-17.78-24.31-17.57-26.57,8.89-26.26,22.76,12.92,27.53,12.92,27.53a72.38,72.38,0,0,1-7.73,8.89c-18.53,9.1-69.45,19.58-70.72,36.52s34.09,60.45,34.09,60.45-3.6,5-4.13,8.79l4.13,5.29a58,58,0,0,0-12.17,36.1c0,8.89.21,16.83-3.92,26s-7,25.62-7,30.07-1.37,5.93-13.65,7.62-32.65,12.25-46.2,20.08-22.37,4.8-27.94,3.39-10,4.73-12.92,19.83-.56,27.32,5.08,27.32,11.2-6.68,15.74-17.16c3.88-8.94,5.68-9.19,10-10.58,7.48-2.4,26.54-6.14,50.39-10.31s37.2-8.89,41.36-12.35,12.14-18.14,20.4-29.64,13-30.06,13-30.06c11.76,16.51,41,25.54,42.56,27.17s4.52,14.11,7.13,29.36,12.63,26.32,19.13,40.86a68.34,68.34,0,0,1,5.57,30.77c-.07,3-.42,9.6,2.54,14.26,19.13-1.13,46.8-11.22,50.54-14.33S1277.75,1219,1265.05,1218.05Z"/><path class="cls-3" d="M314.17,1477.81q5.15,0,8.51.33l6.74.66,16.43-1H361.3q24,0,36.43,8.71t12.48,25.94q0,26.54-29.11,32.08,33.07,3.76,33.07,34.85,0,18.22-14.16,30t-35.94,11.78H361.7l-14.26-.59H314.17q.79-7.93,1.19-12.59t.39-9q0-8.12.7-25.87t.69-24.89V1521q0-12.69-1.14-24.09T314.17,1477.81Zm35.45,15.25v46.13l3.73.2q11.4,0,17.7-6.39t6.29-18q0-22.56-21.83-22.57Zm0,61v51.09l6.13.4q24.56,0,24.56-25.45,0-18.54-9.51-23.27-4.95-2.76-15.24-2.77Z"/><path class="cls-3" d="M443.08,1620.78l1.38-21.75q0-9.69.5-27.19t.49-21.46v-28.87q0-5.92-1.08-21t-1.09-22.15l16.43.6,20-.8,15.25-.59q21,0,33.86,10.49t12.87,27.73a35.94,35.94,0,0,1-5.35,18.81,33.85,33.85,0,0,1-14.06,13.26,40.5,40.5,0,0,1-12.47,4.17l3.17,5.34q3.36,5.55,7.13,11.49t8.51,12.47q6.93,9.9,13.27,18.22,4.54,5.94,16.83,21.19l-21.58-.6-22.18.6q-12.68-25-20.6-37.43-4.35-6.72-6.93-10.69-3.76-5.55-9.1-13.07v18.22q0,4.95.79,20.09t.79,22.88l-18.22-.6Zm35.25-126.14v49.9l5.94.39q23.16,0,23.16-26.43,0-24.64-21.38-24.65A41.19,41.19,0,0,0,478.33,1494.64Z"/><path class="cls-3" d="M578.92,1620.78l1.38-21.59q0-7.32.6-23.36t.59-24.56l-.4-29.9q0-7.12-1.08-20.39t-1.09-22.58q4.76,0,10.29.4t8.32.39h2.38q3.36,0,6.83-.15t9.4-.64l-1,21.16q0,8.31-.79,26.5t-.79,27.29l.59,24.52q0,6.14,1,21t1,22l-18-.6Z"/><path class="cls-3" d="M649.81,1621.17l1.38-21.1q0-12.75.2-19.52,1-33.65,1-34.25v-25.08q0-7-1.29-20.41t-1.28-23c3.43,0,7.12.2,11.09.59s6.79.6,8.51.6l22.38-.6,17.22-.59q32.47,0,52,18.91t19.51,50.2a74.29,74.29,0,0,1-12.48,42q-21,32.26-65.54,32.27H687.83l-20.2-1Zm45.34-127.72h-9.9v112.67h9.51q19,0,29.5-7.22a44.33,44.33,0,0,0,15.84-20.1q5.35-12.87,5.35-29.51,0-28.51-12.28-42.18T695.15,1493.45Z"/><path class="cls-3" d="M934.36,1489.67q-1.87,4.71-2.6,6.68c-.48,1.32-1,3.08-1.66,5.31s-1.1,4.06-1.45,5.51-.8,3.54-1.35,6.29l-2.7,1a44.78,44.78,0,0,0-17.22-17.08,48.56,48.56,0,0,0-24.14-6.09q-21.18,0-33.35,16.51t-12.17,45.37q0,26.49,11.33,40.92t32.18,14.43a60.27,60.27,0,0,0,19.07-3.17v-20.59c0-5,0-8.71-.13-11.09q-.66-17.62-.66-21l16.93.39q5.71,0,9.84-.19l8.08-.4q0,7.72-.6,16.83t-.59,13.66c0,4.63.07,8,.2,10.11q1,16.23,1,20a162,162,0,0,1-26.83,7.53,151.83,151.83,0,0,1-26.64,2.18q-36,0-56.63-18.42t-20.59-51.09q0-34.45,21.74-55.74t56.71-21.29a115,115,0,0,1,28.5,3.42A80.13,80.13,0,0,1,934.36,1489.67Z"/><path class="cls-3" d="M963.66,1620.78l1.39-22.18q0-9.3.5-25.94t.49-20.4v-30.89q0-5.34-1-20.59t-1-22.77l9.9.59,30.1.59q7.92,0,12.08-.19,21.18-1,27.92-1l-.2,8.11.4,10.7q-9.9,0-16.34-.3t-15.15-.89H998.91V1539h9.31a309.12,309.12,0,0,0,33.86-2.17l-.4,9.68.4,8.93-16.56-.79H998.91v49.11h8.87q11.25,0,20.61-.89t15.87-1.49l-.4,9.9.2,9.51-40.4-.6-20,.6Z"/><path class="cls-3" d="M1119.7,1620.78l1.39-21.75q0-9.69.49-27.19t.49-21.46v-28.87q0-5.92-1.08-21t-1.09-22.15l16.43.6,20-.8,15.25-.59q21,0,33.86,10.49t12.87,27.73a36,36,0,0,1-5.34,18.81,34,34,0,0,1-14.06,13.26,40.57,40.57,0,0,1-12.48,4.17l3.17,5.34q3.36,5.55,7.13,11.49t8.51,12.47q6.93,9.9,13.27,18.22,4.54,5.94,16.83,21.19l-21.58-.6-22.18.6q-12.67-25-20.59-37.43l-6.94-10.69q-3.75-5.55-9.11-13.07v18.22q0,4.95.8,20.09t.79,22.88l-18.22-.6Zm35.24-126.14v49.9l6,.39q23.16,0,23.16-26.43,0-24.64-21.38-24.65A41.37,41.37,0,0,0,1154.94,1494.64Z"/><path class="cls-3" d="M1241.28,1550.48q0-33.66,20.6-53.86t54.84-20.2q34.26,0,55,20t20.8,53.07q0,32.67-21.19,52.87t-55.45,20.2q-33.47,0-54-19.8T1241.28,1550.48Zm75.25-59.8q-20,0-30.3,14.85t-10.3,44q0,29.12,10.6,44.46t30.59,15.34q19.41,0,29.9-14.85t10.5-42q0-22-4.16-34.85t-13.66-19.41A38.36,38.36,0,0,0,1316.53,1490.68Z"/><path class="cls-3" d="M1396.33,1620.78l4.35-8.9q5.35-11.09,11.09-24.73,6.54-15.24,15.25-37.19,10.89-26.89,16.73-42.53t10.4-29.08c3.43.34,6.17.56,8.22.68s4.52.16,7.42.16q3.38,0,6.34-.16c2-.12,4.95-.34,8.91-.68l2,7.12q5.36,19.18,21,64.69,11.88,34.81,19.6,53.8l7.33,16.82q-6.93,0-11.58-.2l-9.21-.4c-3,0-6.83.1-11.39.3s-7.56.3-9,.3l-4-16.19-8.31-28.56h-21.39l-25.94.59q-1.59,4-4.75,12.47-2.39,6.54-5.74,16.24-.6,1.79-2.38,6.93c-.53,1.72-1.46,4.56-2.77,8.52-3.83-.4-6.61-.6-8.32-.6h-8.91Q1398.31,1620.59,1396.33,1620.78Zm64-109.76-19.61,48.37,18.22.4h17.63Z"/><path class="cls-3" d="M1555.14,1621.17l1.38-21.1q0-12.75.2-19.52,1-33.65,1-34.25v-25.08q0-7-1.29-20.41t-1.28-23q5.14,0,11.09.59c4,.4,6.79.6,8.51.6l22.38-.6,17.23-.59q32.46,0,52,18.91t19.51,50.2a74.36,74.36,0,0,1-12.47,42q-21,32.26-65.55,32.27h-14.65l-20.2-1Zm45.34-127.72h-9.9v112.67h9.51q19,0,29.5-7.22a44.33,44.33,0,0,0,15.84-20.1q5.35-12.87,5.35-29.51,0-28.51-12.28-42.18T1600.48,1493.45Z"/><path class="cls-3" d="M400.52,1776.78l1-15q0-7.69.13-11.74.67-20.38.68-21.06v-20q0-5.67-.33-9.86-1.17-14.84-1.16-19.57l11.07.54q2,0,7.09-.47c3.37-.32,6-.47,7.89-.47h9.59q14,0,22.14,7.27t8.1,19.8q0,14.27-9.93,22.22t-27.9,7.94h-4l-.14,5.13v5.81q0,4.46.61,14.58c.41,6.74.61,11.7.61,14.84l-12.15-.4Zm24.16-87.2v35.77h2.15q16.21,0,16.21-18.49,0-9.58-3.68-13.43t-12.53-3.85Z"/><path class="cls-3" d="M490,1776.78l.94-15.12q0-5,.27-17.15t.27-13.37v-22.28q0-3.51-.54-13.77t-.54-15.4q4.26,0,7.17.15l6,.29c1.69,0,3.85-.07,6.51-.22s4.43-.22,5.32-.22q0,7-.41,12.7-1.08,15.13-1.08,16.62v10.4l17.75.41,17.62-.41V1709q0-3.24-.81-13.65t-.81-15.67q4.05,0,6.75.15l5.4.29q3,0,7.42-.22c3-.14,4.86-.22,5.67-.22l-.54,14q0,8.25-.13,13.51-.54,21.35-.54,23.36v17c0,3.61.11,6.8.33,9.59q1.15,14.6,1.15,19.58-4.18,0-7-.13l-5.53-.27q-2.83,0-7.29.2c-3,.14-4.91.2-5.8.2l1.21-14.71q0-3.64.27-12.62t.27-9.65v-7.7l-17.62-.13H513.91v15.3q0,10.7,1.49,29.51-4.14,0-7.08-.13l-5.75-.27q-3.74,0-6.74.13Z"/><path class="cls-3" d="M590.45,1679.69q3.51,0,7,.17t7.69.27c1.63,0,4.14-.07,7.56-.22s5.81-.22,7.16-.22q7.43,17.28,13.5,29l7.15,13,6.75-12.69,4.59-9.72q3.38-7.54,8.24-19.57l8.91.31,9.31-.31q-6.35,10.13-9.58,15.65-4.74,8.23-7.36,13t-5.06,9.17q-5.94,10.66-9.72,17.68v12.4q0,2,1.08,16.33.54,7.14.54,13c-2.7,0-5.52-.07-8.44-.22l-4.52-.22q-3.91,0-6.89.15c-2,.09-3.87.19-5.67.29l1.08-14.71.41-19.29v-4.45q-5.94-11.46-9.05-17.13-4.86-8.62-7.69-13.76c-3.78-6.48-6.26-10.65-7.42-12.55Q597.33,1690.49,590.45,1679.69Z"/><path class="cls-3" d="M692.23,1770.57q1.21-3.24,1.89-5.53t1.08-3.78a80.21,80.21,0,0,0,2.16-9.72l1.49-.67a41.36,41.36,0,0,0,2.56,5.26,40.9,40.9,0,0,0,2.84,3.78q6.75,7.42,15.12,7.43a15.29,15.29,0,0,0,10.66-3.92,12.59,12.59,0,0,0,4.32-9.72q0-8.37-10.26-13.36l-11.34-5.67q-18.22-9-18.22-27,0-13.1,9.31-21.2t24.57-8.09a43.12,43.12,0,0,1,13.16,1.88,40.82,40.82,0,0,1,11.68,6.21c-.63,1.35-1.19,2.55-1.69,3.58s-1,2.28-1.55,3.71q-1.21,3-1.69,4.53c-.31,1-.7,2.41-1.14,4.11l-1.62.14q-6.36-13.63-18.09-13.64a12.58,12.58,0,0,0-9.05,3.51,11.7,11.7,0,0,0-3.64,8.78,10,10,0,0,0,2.36,7,23.88,23.88,0,0,0,6.68,4.93l10.67,5.4q11.21,5.67,15.79,11.74t4.59,15.26q0,14.31-10.06,23.42t-26,9.11Q706.14,1778,692.23,1770.57Z"/><path class="cls-3" d="M775.79,1776.78l1-14.71q0-5,.4-15.93t.41-16.74l-.27-20.38q0-4.86-.75-13.9t-.74-15.39q3.24,0,7,.27c2.52.18,4.41.26,5.67.26h1.62c1.53,0,3.08,0,4.66-.1s3.71-.22,6.41-.43l-.67,14.42q0,5.65-.54,18.06t-.54,18.6l.4,16.72q0,4.18.68,14.29t.67,15l-12.28-.4Z"/><path class="cls-3" d="M822.09,1728.86q0-22.93,14-36.71t37.4-13.77q23.34,0,37.52,13.63t14.18,36.18q0,22.27-14.45,36T873,1778q-22.8,0-36.85-13.5T822.09,1728.86Zm51.3-40.77q-13.64,0-20.65,10.13t-7,30q0,19.85,7.22,30.3T873.8,1769q13.22,0,20.38-10.13t7.15-28.62q0-15-2.83-23.76t-9.32-13.23A26.17,26.17,0,0,0,873.39,1688.09Z"/><path class="cls-3" d="M933.46,1695.25l.41-3.65q.14-.81.27-1.95a17.12,17.12,0,0,0,.13-2l-.27-3.91-.27-4q9.18,0,18.16.15t19.77.25q6.48,0,19.71-.2t18.63-.2c-.27,2.58-.41,4.37-.41,5.35v1.47l.41,8.57-6.17-.73a67,67,0,0,0-7.94-.49q-3,0-7.26-.27t-5.49-.27v54.13l1.08,29.29-12.62-.4-12.36.4c0-2.51.14-5.4.41-8.63s.4-5.27.4-6.08q0-6.35.34-20.25t.34-20.11v-28.35c-3.08,0-6.17.09-9.29.27l-4.82.27a47.9,47.9,0,0,0-6.78.47C937.66,1694.69,935.54,1695,933.46,1695.25Z"/><path class="cls-3" d="M1028.09,1776.78l.94-15.12q0-5,.27-17.15t.27-13.37v-22.28q0-3.51-.54-13.77t-.54-15.4q4.26,0,7.17.15l6,.29c1.69,0,3.85-.07,6.51-.22s4.43-.22,5.32-.22q0,7-.41,12.7Q1052,1707.53,1052,1709v10.4l17.75.41,17.62-.41V1709q0-3.24-.81-13.65t-.81-15.67q4.05,0,6.75.15l5.4.29q3,0,7.42-.22c3-.14,4.86-.22,5.67-.22l-.54,14q0,8.25-.13,13.51-.54,21.35-.54,23.36v17c0,3.61.11,6.8.33,9.59q1.15,14.6,1.15,19.58-4.18,0-7-.13l-5.53-.27q-2.84,0-7.29.2c-3,.14-4.91.2-5.81.2l1.22-14.71q0-3.64.27-12.62t.27-9.65v-7.7l-17.62-.13H1052v15.3q0,10.7,1.49,29.51-4.14,0-7.08-.13l-5.75-.27q-3.73,0-6.74.13Z"/><path class="cls-3" d="M1139.72,1776.78l1-15.12q0-6.33.34-17.68t.33-13.9V1709q0-3.64-.67-14t-.68-15.52l6.75.4,20.52.4q5.4,0,8.24-.13,14.45-.68,19-.67l-.13,5.53.27,7.29c-4.5,0-8.22-.07-11.14-.2s-6.37-.34-10.33-.61h-9.45V1721h6.35a210.23,210.23,0,0,0,23.08-1.48l-.27,6.6.27,6.09-11.28-.54h-18.15v33.48h6q7.67,0,14-.61t10.82-1l-.27,6.75.13,6.47-27.54-.4-13.63.4Z"/><path class="cls-3" d="M1225.85,1776.78l.94-14.82q0-6.62.34-18.54t.34-14.63v-19.68q0-4-.74-14.29t-.75-15.09l11.21.4,13.63-.54,10.4-.4q14.29,0,23.08,7.15t8.78,18.9a24.53,24.53,0,0,1-3.65,12.82,23.15,23.15,0,0,1-9.59,9,27.68,27.68,0,0,1-8.5,2.83l2.16,3.65q2.3,3.78,4.86,7.83t5.81,8.5q4.71,6.75,9,12.42,3.11,4,11.47,14.44l-14.71-.4-15.12.4q-8.64-17-14-25.51l-4.72-7.29q-2.56-3.78-6.21-8.91v12.42q0,3.38.54,13.7c.35,6.89.54,12.08.54,15.59l-12.42-.4Zm24-86v34l4,.27q15.79,0,15.79-18,0-16.8-14.58-16.81A29.08,29.08,0,0,0,1249.88,1690.79Z"/><path class="cls-3" d="M1312.38,1776.78l3-6.06q3.64-7.56,7.56-16.86,4.46-10.38,10.39-25.35,7.42-18.35,11.41-29t7.09-19.83q3.5.35,5.6.46c1.39.08,3.08.11,5.06.11,1.53,0,3,0,4.32-.11s3.37-.23,6.07-.46l1.35,4.86q3.65,13.08,14.31,44.09,8.1,23.74,13.37,36.68l5,11.46q-4.72,0-7.9-.13l-6.27-.27c-2.08,0-4.66.07-7.76.2s-5.16.2-6.15.2l-2.7-11-5.67-19.47h-14.58l-17.68.4q-1.08,2.7-3.24,8.51-1.62,4.45-3.91,11.06-.4,1.21-1.63,4.73c-.35,1.17-1,3.1-1.88,5.8-2.61-.27-4.51-.4-5.67-.4h-6.08C1314.4,1776.56,1313.28,1776.7,1312.38,1776.78ZM1356,1702l-13.36,33,12.41.27h12Z"/><path class="cls-3" d="M1426.17,1776.78l.95-15q0-7.69.13-11.74.68-20.38.68-21.06v-20q0-5.67-.33-9.86-1.15-14.84-1.16-19.57l11.07.54q2,0,7.09-.47c3.37-.32,6-.47,7.9-.47h9.58q14,0,22.14,7.27t8.1,19.8q0,14.27-9.93,22.22t-27.9,7.94h-4l-.13,5.13v5.81q0,4.46.6,14.58c.41,6.74.61,11.7.61,14.84l-12.15-.4Zm24.17-87.2v35.77h2.14q16.21,0,16.21-18.49,0-9.58-3.68-13.43t-12.53-3.85Z"/><path class="cls-3" d="M1504.6,1679.69q3.51,0,7,.17c2.34.11,4.9.2,7.7.27,1.62,0,4.13-.07,7.56-.22s5.8-.22,7.15-.22q7.42,17.28,13.5,29l7.15,13,6.75-12.69,4.59-9.72q3.38-7.54,8.24-19.57l8.91.31,9.31-.31q-6.35,10.13-9.58,15.65-4.74,8.23-7.36,13t-5.06,9.17q-5.94,10.66-9.72,17.68v12.4q0,2,1.08,16.33.54,7.14.54,13c-2.7,0-5.52-.07-8.44-.22l-4.52-.22q-3.92,0-6.89.15c-2,.09-3.87.19-5.66.29l1.07-14.71.41-19.29v-4.45q-5.94-11.46-9-17.13-4.87-8.62-7.7-13.76c-3.78-6.48-6.25-10.65-7.42-12.55Q1511.49,1690.49,1504.6,1679.69Z"/></svg>